<?xml version="1.0" standalone="no"?><!DOCTYPE svg PUBLIC "-//W3C//DTD SVG 1.1//EN" "http://www.w3.org/Graphics/SVG/1.1/DTD/svg11.dtd"><svg class="icon" height="512" viewBox="0 0 1024 1024" version="1.1" xmlns="http://www.w3.org/2000/svg"><path d="M943.259094 212.400504H720.085222c-12.95608 0-27.943422 2.745531-43.083237 7.660471V83.474157c0-42.496883-34.573423-77.069283-77.069283-77.069284h-223.172849c-34.82618 0-81.419358 19.312858-106.074897 43.966351L51.817156 269.239024c-24.654516 24.654516-43.966351 71.247694-43.966351 106.074897v360.504634c0 42.49586 34.573423 77.06826 77.069283 77.06826h266.256087v128.926348c0 42.49586 34.573423 77.069283 77.069283 77.069283h515.012613c42.49586 0 77.069283-34.573423 77.069283-77.069283V289.469787c0.002047-42.496883-34.571377-77.069283-77.06826-77.069283zM298.988582 94.426603v177.211051c0 14.283308-11.620665 25.903973-25.903973 25.903973H95.872534l203.116048-203.115024z m52.188616 508.7377V761.721505H84.920088c-14.283308 0-25.903973-11.619642-25.903973-25.90295V375.312898c0-7.779174 1.822508-17.126053 4.870938-26.605961H273.083585c42.496883 0 77.069283-34.573423 77.069283-77.069283V62.441121c9.479909-3.048429 18.826787-4.870938 26.605962-4.870938h223.173872c14.283308 0 25.903973 11.620665 25.903973 25.903974v164.250877l-212.018812 204.770734-0.317224 0.312108c-34.947953 34.947953-62.323441 100.992135-62.323441 150.356427z m278.857079-288.360524v169.992649c0 14.283308-11.620665 25.903973-25.903973 25.903973H432.743912c5.27105-8.315386 10.94733-15.697517 16.792454-21.569248l180.497911-174.327374z m339.129814 627.010407c0 14.283308-11.620665 25.903973-25.903973 25.903973H428.246481c-14.283308 0-25.903973-11.620665-25.903973-25.903973V603.164303c0-12.282744 2.63092-26.674523 7.115048-41.297569h194.672748c42.49586 0 77.069283-34.573423 77.069283-77.069283V273.051863c13.887288-5.89015 28.197202-9.487072 38.885635-9.487072h223.173872c14.283308 0 25.903973 11.620665 25.903973 25.903973v652.345422z" /></svg>