<?xml version="1.0" standalone="no"?><!-- Generator: Gravit.io --><svg xmlns="http://www.w3.org/2000/svg" xmlns:xlink="http://www.w3.org/1999/xlink" style="isolation:isolate" viewBox="0 0 98 62" width="98" height="62"><defs><clipPath id="_clipPath_Gtlly1GSizrj9brCN0uHlkwSBqm28PlD"><rect width="98" height="62"/></clipPath></defs><g clip-path="url(#_clipPath_Gtlly1GSizrj9brCN0uHlkwSBqm28PlD)"><g transform="matrix(1,0,0,1,18,49.797)"><text transform="matrix(1,0,0,1,0,9.048)" style="font-family:&quot;Numans&quot;;font-weight:400;font-size:10px;font-style:normal;fill:#ffffff;stroke:none;">OPENFLOW</text></g><g id="Group"><path d=" M 43.635 20.61 L 56.765 25 L 49.975 4.6 L 43.635 20.61 Z " fill="rgb(209,209,209)"/><path d=" M 43.635 20.61 L 44.875 36.71 L 34.485 42 L 43.635 20.61 Z " fill="rgb(255,255,255)"/><path d=" M 53.975 17.203 L 56.765 25 L 60.975 15.57 L 53.975 17.203 Z " fill="rgb(232,232,232)"/><path d=" M 60.975 15.57 L 58.975 20.106 L 63.515 20.61 L 60.975 15.57 Z " fill="rgb(255,255,255)"/><path d=" M 43.635 20.61 L 44.452 31.219 L 56.765 25 L 43.635 20.61 Z " fill="rgb(232,232,232)"/><path d=" M 34.975 0 L 43.635 20.61 L 49.975 4.6 L 34.975 0 Z " fill="rgb(185,185,185)"/></g></g></svg>